<svg width="158" height="20" viewBox="0 0 158 20" fill="none" xmlns="http://www.w3.org/2000/svg">
<rect width="158" height="20" fill="#1E1E1E"/>
<rect width="1440" height="1349" transform="translate(-101 -25)" fill="url(#paint0_linear_0_1)"/>
<rect x="-101" y="-25" width="1440" height="69.9482" fill="#2791C2"/>
<path d="M0.368 18.9859V2.18592H5.024L11.744 13.1539H9.296L15.824 2.18592H20.48L20.528 18.9859H15.368L15.32 9.96193H16.136L11.672 17.4739H9.176L4.52 9.96193H5.528V18.9859H0.368ZM32.0744 19.3699C30.7144 19.3699 29.4504 19.1539 28.2824 18.7219C27.1304 18.2899 26.1304 17.6819 25.2824 16.8979C24.4344 16.0979 23.7704 15.1619 23.2904 14.0899C22.8264 13.0179 22.5944 11.8499 22.5944 10.5859C22.5944 9.30593 22.8264 8.13793 23.2904 7.08193C23.7704 6.00993 24.4344 5.08192 25.2824 4.29792C26.1304 3.49792 27.1304 2.88192 28.2824 2.44993C29.4504 2.01793 30.7144 1.80193 32.0744 1.80193C33.4504 1.80193 34.7144 2.01793 35.8664 2.44993C37.0184 2.88192 38.0184 3.49792 38.8664 4.29792C39.7144 5.08192 40.3704 6.00993 40.8344 7.08193C41.3144 8.13793 41.5544 9.30593 41.5544 10.5859C41.5544 11.8499 41.3144 13.0179 40.8344 14.0899C40.3704 15.1619 39.7144 16.0979 38.8664 16.8979C38.0184 17.6819 37.0184 18.2899 35.8664 18.7219C34.7144 19.1539 33.4504 19.3699 32.0744 19.3699ZM32.0744 14.7859C32.6024 14.7859 33.0904 14.6899 33.5384 14.4979C34.0024 14.3059 34.4024 14.0339 34.7384 13.6819C35.0904 13.3139 35.3624 12.8739 35.5544 12.3619C35.7464 11.8339 35.8424 11.2419 35.8424 10.5859C35.8424 9.92992 35.7464 9.34593 35.5544 8.83393C35.3624 8.30593 35.0904 7.86593 34.7384 7.51393C34.4024 7.14592 34.0024 6.86592 33.5384 6.67393C33.0904 6.48193 32.6024 6.38592 32.0744 6.38592C31.5464 6.38592 31.0504 6.48193 30.5864 6.67393C30.1384 6.86592 29.7384 7.14592 29.3864 7.51393C29.0504 7.86593 28.7864 8.30593 28.5944 8.83393C28.4024 9.34593 28.3064 9.92992 28.3064 10.5859C28.3064 11.2419 28.4024 11.8339 28.5944 12.3619C28.7864 12.8739 29.0504 13.3139 29.3864 13.6819C29.7384 14.0339 30.1384 14.3059 30.5864 14.4979C31.0504 14.6899 31.5464 14.7859 32.0744 14.7859ZM48.3043 18.9859L41.2002 2.18592H47.2963L53.0803 16.3699H49.4563L55.4083 2.18592H60.9763L53.8723 18.9859H48.3043ZM61.5399 18.9859V2.18592H67.2039V18.9859H61.5399ZM75.1145 8.42593H82.6025V12.5059H75.1145V8.42593ZM75.4985 14.7139H83.8985V18.9859H69.9305V2.18592H83.5865V6.45793H75.4985V14.7139ZM85.9589 18.9859L88.7669 5.06592C89.0229 3.78592 89.5429 2.79392 90.3269 2.08992C91.1269 1.38592 92.1749 1.03393 93.4709 1.03393C93.9989 1.03393 94.4949 1.10593 94.9589 1.24993C95.4389 1.37793 95.8309 1.56993 96.1349 1.82592L95.1749 3.52992C94.7269 3.12992 94.1589 2.92992 93.4709 2.92992C92.7829 2.92992 92.2309 3.12192 91.8149 3.50592C91.4149 3.88992 91.1349 4.47392 90.9749 5.25793L90.6149 6.91393L90.4949 7.87392L88.2629 18.9859H85.9589ZM85.9589 8.16192L86.3189 6.26592H94.4549L94.0709 8.16192H85.9589ZM94.1189 18.9859L96.6389 6.26592H98.9429L96.4229 18.9859H94.1189ZM98.4629 3.81792C98.0309 3.81792 97.6789 3.68192 97.4069 3.40992C97.1509 3.13793 97.0229 2.80993 97.0229 2.42592C97.0229 1.97792 97.1749 1.60192 97.4789 1.29792C97.7829 0.977925 98.1829 0.817925 98.6789 0.817925C99.0949 0.817925 99.4389 0.953925 99.7109 1.22593C99.9989 1.48193 100.143 1.79392 100.143 2.16192C100.143 2.65793 99.9909 3.05793 99.6869 3.36193C99.3829 3.66593 98.9749 3.81792 98.4629 3.81792ZM109.835 6.14593C110.955 6.14593 111.891 6.36993 112.643 6.81792C113.395 7.26592 113.915 7.92193 114.203 8.78593C114.507 9.63393 114.539 10.6579 114.299 11.8579L112.883 18.9859H110.579L111.995 11.8579C112.235 10.7059 112.123 9.80993 111.659 9.16993C111.195 8.52993 110.363 8.20992 109.163 8.20992C107.931 8.20992 106.907 8.54593 106.091 9.21793C105.275 9.87393 104.731 10.8899 104.459 12.2659L103.115 18.9859H100.811L103.331 6.26592H105.539L104.819 9.91393L104.387 8.92992C104.995 7.96992 105.763 7.26592 106.691 6.81792C107.635 6.36993 108.683 6.14593 109.835 6.14593ZM122.739 19.1299C121.667 19.1299 120.707 18.9139 119.859 18.4819C119.011 18.0339 118.339 17.4019 117.843 16.5859C117.363 15.7699 117.123 14.7859 117.123 13.6339C117.123 12.5459 117.299 11.5459 117.651 10.6339C118.019 9.72193 118.523 8.92992 119.163 8.25793C119.819 7.58593 120.587 7.06593 121.467 6.69793C122.347 6.32993 123.299 6.14593 124.323 6.14593C125.427 6.14593 126.363 6.33792 127.131 6.72192C127.899 7.10593 128.491 7.67393 128.907 8.42593C129.323 9.16193 129.531 10.0659 129.531 11.1379C129.531 12.3219 129.379 13.4019 129.075 14.3779C128.771 15.3539 128.315 16.2019 127.707 16.9219C127.115 17.6259 126.403 18.1699 125.571 18.5539C124.739 18.9379 123.795 19.1299 122.739 19.1299ZM123.243 17.1139C124.203 17.1139 125.059 16.8819 125.811 16.4179C126.563 15.9539 127.147 15.3219 127.563 14.5219C127.995 13.7059 128.211 12.7779 128.211 11.7379C128.211 10.6179 127.883 9.74593 127.227 9.12193C126.571 8.48193 125.635 8.16192 124.419 8.16192C123.475 8.16192 122.627 8.39392 121.875 8.85793C121.123 9.30593 120.531 9.93793 120.099 10.7539C119.667 11.5539 119.451 12.4819 119.451 13.5379C119.451 14.6419 119.779 15.5139 120.435 16.1539C121.091 16.7939 122.027 17.1139 123.243 17.1139ZM126.915 18.9859L127.587 15.6979L128.331 12.7459L128.667 9.72193L130.371 1.17792H132.675L129.123 18.9859H126.915ZM139.578 19.1299C138.33 19.1299 137.25 18.9059 136.338 18.4579C135.426 17.9939 134.722 17.3539 134.226 16.5379C133.73 15.7059 133.482 14.7299 133.482 13.6099C133.482 12.1699 133.794 10.8899 134.418 9.76993C135.042 8.64993 135.89 7.76993 136.962 7.12993C138.05 6.47393 139.282 6.14593 140.658 6.14593C141.81 6.14593 142.81 6.36993 143.658 6.81792C144.506 7.24993 145.162 7.87393 145.626 8.68993C146.106 9.50593 146.346 10.4899 146.346 11.6419C146.346 11.9299 146.33 12.2259 146.298 12.5299C146.266 12.8179 146.226 13.0899 146.178 13.3459H135.162L135.45 11.6659H145.074L144.138 12.2419C144.282 11.3459 144.218 10.5939 143.946 9.98592C143.674 9.36192 143.242 8.88993 142.65 8.56993C142.074 8.23393 141.378 8.06593 140.562 8.06593C139.602 8.06593 138.754 8.29793 138.018 8.76192C137.298 9.20992 136.738 9.84193 136.338 10.6579C135.938 11.4579 135.738 12.4019 135.738 13.4899C135.738 14.6419 136.066 15.5379 136.722 16.1779C137.394 16.8019 138.41 17.1139 139.77 17.1139C140.57 17.1139 141.314 16.9859 142.002 16.7299C142.69 16.4579 143.258 16.0979 143.706 15.6499L144.69 17.3059C144.082 17.8979 143.322 18.3539 142.41 18.6739C141.498 18.9779 140.554 19.1299 139.578 19.1299ZM148.178 18.9859L150.698 6.26592H152.906L152.186 9.96193L151.946 9.04992C152.538 7.97792 153.29 7.22592 154.202 6.79393C155.114 6.36193 156.242 6.14593 157.586 6.14593L157.154 8.37792C157.058 8.36193 156.962 8.35393 156.866 8.35393C156.77 8.35393 156.666 8.35393 156.554 8.35393C155.29 8.35393 154.242 8.69793 153.41 9.38593C152.594 10.0739 152.042 11.1539 151.754 12.6259L150.482 18.9859H148.178Z" fill="white"/>
<defs>
<linearGradient id="paint0_linear_0_1" x1="720" y1="0" x2="720" y2="1349" gradientUnits="userSpaceOnUse">
<stop stop-color="#2F2F2F" stop-opacity="0"/>
<stop offset="1"/>
</linearGradient>
</defs>
</svg>
