<svg width="25" height="25" viewBox="0 0 25 25" fill="none" xmlns="http://www.w3.org/2000/svg">
<rect width="25" height="25" fill="#1E1E1E"/>
<rect width="1440" height="1349" transform="translate(-540 -22)" fill="url(#paint0_linear_0_1)"/>
<rect x="-540" y="-22" width="1440" height="69.9482" fill="#2791C2"/>
<rect x="-12" y="-8.01037" width="384" height="41.9689" rx="5" fill="white"/>
<path d="M16.9807 17.6543L17.4499 18.1231L22.403 23.0722L23.1056 22.3702L18.1534 17.4219L17.6833 16.9522L18.093 16.429C19.3542 14.8182 20.0397 12.832 20.0402 10.7869L16.9807 17.6543ZM16.9807 17.6543L16.458 18.0627M16.9807 17.6543L16.458 18.0627M16.458 18.0627C14.846 19.3224 12.8584 20.007 10.8118 20.0075L16.458 18.0627ZM10.8116 20.0075C5.72346 20.0074 1.58331 15.8696 1.58331 10.7869C1.58331 5.70422 5.72354 1.56642 10.8118 1.56642C15.8999 1.56642 20.0401 5.70412 20.0402 10.7868L10.8116 20.0075ZM19.0456 10.7869C19.0456 6.24811 15.3527 2.55905 10.8118 2.55905C6.27077 2.55905 2.57792 6.24811 2.57792 10.7869C2.57792 15.3258 6.27077 19.0148 10.8118 19.0148C15.3527 19.0148 19.0456 15.3258 19.0456 10.7869Z" fill="white" stroke="#BCBCBC" stroke-width="1.5"/>
<defs>
<linearGradient id="paint0_linear_0_1" x1="720" y1="0" x2="720" y2="1349" gradientUnits="userSpaceOnUse">
<stop stop-color="#2F2F2F" stop-opacity="0"/>
<stop offset="1"/>
</linearGradient>
</defs>
</svg>
